<svg width="25" height="24" viewBox="0 0 25 24" fill="none" xmlns="http://www.w3.org/2000/svg">
<path d="M12.5 2C8.08 2 4.5 2.5 4.5 6V16C4.50225 16.4194 4.59241 16.8336 4.76465 17.216C4.9369 17.5984 5.1874 17.9404 5.5 18.22V20C5.5 20.2652 5.60536 20.5196 5.79289 20.7071C5.98043 20.8946 6.23478 21 6.5 21H7.5C7.76522 21 8.01957 20.8946 8.20711 20.7071C8.39464 20.5196 8.5 20.2652 8.5 20V19H14.5C13.9021 17.9257 13.56 16.728 13.5 15.5C13.5089 14.6144 13.7296 13.7439 14.1436 12.961C14.5577 12.1782 15.153 11.5058 15.88 11H6.5V6H18.5V10C18.6665 9.98975 18.8335 9.98975 19 10C19.5079 10.0016 20.013 10.0757 20.5 10.22V6C20.5 2.5 16.92 2 12.5 2ZM8 14C8.29667 14 8.58668 14.088 8.83335 14.2528C9.08003 14.4176 9.27229 14.6519 9.38582 14.926C9.49935 15.2001 9.52906 15.5017 9.47118 15.7926C9.4133 16.0836 9.27044 16.3509 9.06066 16.5607C8.85088 16.7704 8.58361 16.9133 8.29264 16.9712C8.00166 17.0291 7.70006 16.9993 7.42597 16.8858C7.15189 16.7723 6.91762 16.58 6.7528 16.3334C6.58797 16.0867 6.5 15.7967 6.5 15.5C6.5 15.1022 6.65804 14.7206 6.93934 14.4393C7.22064 14.158 7.60218 14 8 14ZM19 12C18.075 12.0104 17.1908 12.3825 16.5366 13.0366C15.8825 13.6908 15.5104 14.575 15.5 15.5C15.5 18.1 19 22 19 22C19 22 22.5 18.1 22.5 15.5C22.4896 14.575 22.1175 13.6908 21.4634 13.0366C20.8092 12.3825 19.925 12.0104 19 12ZM19 16.8C18.6817 16.8 18.3765 16.6736 18.1515 16.4485C17.9264 16.2235 17.8 15.9183 17.8 15.6C17.8 15.2817 17.9264 14.9765 18.1515 14.7515C18.3765 14.5264 18.6817 14.4 19 14.4C19.3113 14.4211 19.6045 14.5542 19.8251 14.7749C20.0458 14.9955 20.1789 15.2887 20.2 15.6C20.2071 15.7595 20.1809 15.9187 20.1231 16.0675C20.0653 16.2163 19.9772 16.3514 19.8643 16.4643C19.7514 16.5772 19.6163 16.6653 19.4675 16.7231C19.3187 16.7809 19.1595 16.8071 19 16.8Z" fill="black"/>
</svg>
