<svg width="25" height="24" viewBox="0 0 25 24" fill="none" xmlns="http://www.w3.org/2000/svg">
<path d="M17 4V8.25L19.86 9.94L19.11 11.16L15.5 9V4H17ZM16.5 13C17.86 13 19.04 12.5 20 11.53C21 10.56 21.5 9.39 21.5 8C21.5 6.64 21 5.46 20 4.5C19.04 3.5 17.86 3 16.5 3C15.11 3 13.94 3.5 12.97 4.5C12 5.46 11.5 6.64 11.5 8C11.5 9.39 12 10.56 12.97 11.53C13.94 12.5 15.11 13 16.5 13ZM14 19C14.44 19 14.8 18.84 15.08 18.54C15.36 18.24 15.5 17.89 15.5 17.5C15.5 17.08 15.36 16.73 15.08 16.43C14.8 16.13 14.44 16 14 16C13.56 16 13.2 16.13 12.92 16.43C12.64 16.73 12.5 17.08 12.5 17.5C12.5 17.89 12.64 18.24 12.92 18.54C13.2 18.84 13.56 19 14 19ZM3.5 13H11.61C10.2 11.64 9.5 10 9.5 8H3.5V13ZM5 19C5.44 19 5.8 18.84 6.08 18.54C6.36 18.24 6.5 17.89 6.5 17.5C6.5 17.08 6.36 16.73 6.08 16.43C5.8 16.13 5.44 16 5 16C4.56 16 4.2 16.13 3.92 16.43C3.64 16.73 3.5 17.08 3.5 17.5C3.5 17.89 3.64 18.24 3.92 18.54C4.2 18.84 4.56 19 5 19ZM16.5 1C18.42 1 20.08 1.67 21.45 3.05C22.83 4.42 23.5 6.08 23.5 8C23.5 9.77 22.94 11.29 21.78 12.59C20.63 13.88 19.2 14.66 17.5 14.91V18C17.5 18.84 17.17 19.58 16.5 20.2V22C16.5 22.27 16.39 22.5 16.2 22.71C16 22.91 15.78 23 15.5 23H14.5C14.23 23 14 22.91 13.79 22.71C13.6965 22.6172 13.6226 22.5065 13.5728 22.3845C13.523 22.2625 13.4982 22.1317 13.5 22V21H5.5V22C5.5 22.27 5.41 22.5 5.21 22.71C5 22.91 4.77 23 4.5 23H3.5C3.22 23 3 22.91 2.8 22.71C2.61 22.5 2.5 22.27 2.5 22V20.2C1.83 19.58 1.5 18.84 1.5 18V8C1.5 6.42 2.17 5.35 3.55 4.8C4.92 4.26 6.91 4 9.5 4H10.11C10.39 4 10.59 4.03 10.72 4.03C12.13 2 14.05 1 16.5 1Z" fill="black"/>
</svg>
