 <svg width="19px"  height="19px" x="0px" y="0px"  viewBox = "0 0 19 19" enableBackground="new 0 0 19 19" fill="#9E9E9E" xmlns="http://www.w3.org/2000/svg">
        <path d="M3.6,9.5h12.9v2.2H3.6V9.5z M20,2.2v7.3c0,1.2-1,2.2-2.1,2.2V8.7c0-0.4-0.3-0.7-0.7-0.7H2.9C2.5,8,2.1,8.3,2.1,8.7v2.9	C1,11.6,0,10.7,0,9.5V2.2C0,1,1,0,2.1,0h15.7C19,0,20,1,20,2.2z M17.9,2.9c0-0.4-0.3-0.7-0.7-0.7H2.9c-0.4,0-0.7,0.3-0.7,0.7 s0.3,0.7,0.7,0.7h14.3C17.5,3.6,17.9,3.3,17.9,2.9z M10.7,15.3v-2.2c0-0.4-0.3-0.7-0.7-0.7c-0.4,0-0.7,0.3-0.7,0.7v2.2 c0,0.4,0.3,0.7,0.7,0.7C10.4,16,10.7,15.7,10.7,15.3z M15,15.3v-2.2c0-0.4-0.3-0.7-0.7-0.7c-0.4,0-0.7,0.3-0.7,0.7v2.2 c0,0.4,0.3,0.7,0.7,0.7C14.7,16,15,15.7,15,15.3z M6.4,15.3v-2.2c0-0.4-0.3-0.7-0.7-0.7c-0.4,0-0.7,0.3-0.7,0.7v2.2 C5,15.7,5.3,16,5.7,16C6.1,16,6.4,15.7,6.4,15.3z" />
    </svg>