<svg xmlns="http://www.w3.org/2000/svg" viewBox="0 0 750 600" height="500"><g id="freepik--background-complete--inject-37"><path d="M693.93,447.73c0,.15-149.74.26-334.42.26s-334.46-.11-334.46-.26,149.71-.26,334.46-.26S693.93,447.59,693.93,447.73Z" style="fill:#e0e0e0"></path><rect x="464.39" y="377.69" width="4.6" height="69.64" style="fill:#e0e0e0"></rect><rect x="553.71" y="293.56" width="81.05" height="153.82" style="fill:#e0e0e0"></rect><rect x="596.75" y="293.56" width="38" height="153.82" style="fill:#ebebeb"></rect><rect x="570.7" y="308.03" width="7.29" height="17.7" style="fill:#f5f5f5"></rect><rect x="570.7" y="377.32" width="7.29" height="17.7" style="fill:#f5f5f5"></rect><path d="M596.75,332.68c0,.16-9.63.28-21.52.28s-21.52-.12-21.52-.28,9.63-.27,21.52-.27S596.75,332.53,596.75,332.68Z" style="fill:#f5f5f5"></path><rect x="570.7" y="342.94" width="7.29" height="17.7" style="fill:#f5f5f5"></rect><path d="M596.75,367.59c0,.15-9.63.28-21.52.28s-21.52-.13-21.52-.28,9.63-.27,21.52-.27S596.75,367.44,596.75,367.59Z" style="fill:#f5f5f5"></path><rect x="604.82" y="308.03" width="7.29" height="17.7" style="fill:#e0e0e0"></rect><rect x="620.63" y="308.03" width="7.29" height="17.7" style="fill:#e0e0e0"></rect><rect x="604.82" y="341.62" width="7.29" height="17.7" style="fill:#e0e0e0"></rect><rect x="620.63" y="341.62" width="7.29" height="17.7" style="fill:#e0e0e0"></rect><rect x="604.82" y="375.22" width="7.29" height="17.7" style="fill:#e0e0e0"></rect><rect x="620.63" y="375.22" width="7.29" height="17.7" style="fill:#e0e0e0"></rect><rect x="547.61" y="289.84" width="93.23" height="3.85" style="fill:#e0e0e0"></rect><path d="M635.32,294.05c0,.16-18.11.28-40.45.28s-40.46-.12-40.46-.28,18.11-.27,40.46-.27S635.32,293.9,635.32,294.05Z" style="fill:#ebebeb"></path><rect x="89.15" y="86.69" width="96.66" height="306.35" style="fill:#f5f5f5"></rect><rect x="137.48" y="86.69" width="48.33" height="305.5" style="fill:#ebebeb"></rect><rect x="100.19" y="56.62" width="34.13" height="30.08" style="fill:#f5f5f5"></rect><rect x="126.19" y="56.62" width="8.14" height="30.08" style="fill:#ebebeb"></rect><polyline points="81.09 86.69 81.09 84.94 188.64 84.94 188.64 86.69" style="fill:#e0e0e0"></polyline><rect x="108.23" y="99.81" width="8.18" height="17.25" style="fill:#fafafa"></rect><path d="M137.48,123.84c0,.18-10.82.32-24.16.32s-24.17-.14-24.17-.32,10.82-.33,24.17-.33S137.48,123.65,137.48,123.84Z" style="fill:#e0e0e0"></path><rect x="156.98" y="99.81" width="8.18" height="17.25" style="fill:#e0e0e0"></rect><path d="M186.23,123.84c0,.18-10.82.32-24.16.32s-24.17-.14-24.17-.32,10.82-.33,24.17-.33S186.23,123.65,186.23,123.84Z" style="fill:#e0e0e0"></path><rect x="156.98" y="134.07" width="8.18" height="17.25" style="fill:#e0e0e0"></rect><path d="M186.23,158.09c0,.18-10.82.33-24.16.33s-24.17-.15-24.17-.33,10.82-.33,24.17-.33S186.23,157.91,186.23,158.09Z" style="fill:#e0e0e0"></path><rect x="156.98" y="169.35" width="8.18" height="17.25" style="fill:#e0e0e0"></rect><path d="M186.23,193.38c0,.18-10.82.33-24.16.33s-24.17-.15-24.17-.33,10.82-.33,24.17-.33S186.23,193.19,186.23,193.38Z" style="fill:#e0e0e0"></path><rect x="156.98" y="204.64" width="8.18" height="17.25" style="fill:#e0e0e0"></rect><path d="M186.23,228.66c0,.18-10.82.33-24.16.33s-24.17-.15-24.17-.33,10.82-.33,24.17-.33S186.23,228.48,186.23,228.66Z" style="fill:#e0e0e0"></path><rect x="156.98" y="238.92" width="8.18" height="17.25" style="fill:#e0e0e0"></rect><path d="M186.23,262.94c0,.18-10.82.33-24.16.33s-24.17-.15-24.17-.33,10.82-.33,24.17-.33S186.23,262.76,186.23,262.94Z" style="fill:#e0e0e0"></path><rect x="156.98" y="273.33" width="8.18" height="17.25" style="fill:#e0e0e0"></rect><rect x="156.98" y="308.2" width="8.18" height="17.25" style="fill:#e0e0e0"></rect><path d="M186.23,297.36c0,.18-10.82.33-24.16.33s-24.17-.15-24.17-.33,10.82-.33,24.17-.33S186.23,297.17,186.23,297.36Z" style="fill:#e0e0e0"></path><rect x="108.23" y="134.59" width="8.18" height="17.25" style="fill:#fafafa"></rect><path d="M137.48,158.61c0,.18-10.82.33-24.16.33s-24.17-.15-24.17-.33,10.82-.33,24.17-.33S137.48,158.43,137.48,158.61Z" style="fill:#e0e0e0"></path><rect x="108.23" y="169.36" width="8.18" height="17.25" style="fill:#fafafa"></rect><path d="M137.48,193.39c0,.18-10.82.33-24.16.33s-24.17-.15-24.17-.33,10.82-.33,24.17-.33S137.48,193.21,137.48,193.39Z" style="fill:#e0e0e0"></path><rect x="108.23" y="204.14" width="8.18" height="17.25" style="fill:#fafafa"></rect><path d="M137.48,228.16c0,.19-10.82.33-24.16.33s-24.17-.14-24.17-.33,10.82-.33,24.17-.33S137.48,228,137.48,228.16Z" style="fill:#e0e0e0"></path><rect x="108.23" y="238.92" width="8.18" height="17.25" style="fill:#fafafa"></rect><path d="M137.48,262.94c0,.18-10.82.33-24.16.33s-24.17-.15-24.17-.33,10.82-.33,24.17-.33S137.48,262.76,137.48,262.94Z" style="fill:#e0e0e0"></path><rect x="108.23" y="273.69" width="8.18" height="17.25" style="fill:#fafafa"></rect><path d="M137.48,297.72c0,.18-10.82.33-24.16.33s-24.17-.15-24.17-.33,10.82-.33,24.17-.33S137.48,297.53,137.48,297.72Z" style="fill:#e0e0e0"></path><rect x="108.23" y="308.47" width="8.18" height="17.25" style="fill:#fafafa"></rect><rect x="174.06" y="263.8" width="141.12" height="186.13" style="fill:#ebebeb"></rect><rect x="249.01" y="263.8" width="66.17" height="186.13" style="fill:#e0e0e0"></rect><rect x="203.65" y="289" width="12.69" height="30.83" style="fill:#f5f5f5"></rect><rect x="203.65" y="409.65" width="12.69" height="30.83" style="fill:#f5f5f5"></rect><path d="M249,331.92c0,.35-16.78.63-37.47.63s-37.48-.28-37.48-.63,16.78-.62,37.48-.62S249,331.58,249,331.92Z" style="fill:#f5f5f5"></path><rect x="203.65" y="349.78" width="12.69" height="30.83" style="fill:#f5f5f5"></rect><path d="M249,392.71c0,.34-16.78.62-37.47.62s-37.48-.28-37.48-.62,16.78-.63,37.48-.63S249,392.36,249,392.71Z" style="fill:#f5f5f5"></path><rect x="263.06" y="289" width="12.69" height="30.83" style="fill:#f5f5f5"></rect><rect x="290.59" y="289" width="12.69" height="30.83" style="fill:#f5f5f5"></rect><rect x="263.06" y="347.49" width="12.69" height="30.83" style="fill:#f5f5f5"></rect><rect x="290.59" y="347.49" width="12.69" height="30.83" style="fill:#f5f5f5"></rect><rect x="263.06" y="405.99" width="12.69" height="30.83" style="fill:#f5f5f5"></rect><rect x="290.59" y="405.99" width="12.69" height="30.83" style="fill:#f5f5f5"></rect><rect x="163.46" y="257.32" width="162.33" height="6.71" style="fill:#e0e0e0"></rect><path d="M316.17,264.66c0,.35-31.54.63-70.44.63s-70.45-.28-70.45-.63,31.53-.62,70.45-.62S316.17,264.32,316.17,264.66Z" style="fill:#ebebeb"></path><polygon points="176.38 449.96 34.14 449.96 33.52 225.15 175.76 225.15 176.38 449.96" style="fill:#ebebeb"></polygon><rect x="104.64" y="225.15" width="71.12" height="224.8" style="fill:#e0e0e0"></rect><rect x="49.76" y="180.9" width="50.23" height="44.26" style="fill:#ebebeb"></rect><rect x="88.02" y="180.9" width="11.97" height="44.26" style="fill:#e0e0e0"></rect><rect x="21.67" y="222.57" width="158.26" height="2.58" style="fill:#e0e0e0"></rect><rect x="61.6" y="244.46" width="12.04" height="25.39" style="fill:#fff"></rect><path d="M104.64,279.81c0,.27-15.92.48-35.56.48s-35.56-.21-35.56-.48,15.92-.49,35.56-.49S104.64,279.54,104.64,279.81Z" style="fill:#e0e0e0"></path><rect x="133.34" y="244.46" width="12.04" height="25.39" style="fill:#f5f5f5"></rect><path d="M176.38,279.81c0,.27-15.92.48-35.56.48s-35.56-.21-35.56-.48,15.92-.49,35.56-.49S176.38,279.54,176.38,279.81Z" style="fill:#ebebeb"></path><rect x="133.34" y="294.86" width="12.04" height="25.39" style="fill:#f5f5f5"></rect><path d="M176.38,330.21c0,.27-15.92.49-35.56.49s-35.56-.22-35.56-.49,15.92-.48,35.56-.48S176.38,329.94,176.38,330.21Z" style="fill:#ebebeb"></path><rect x="133.34" y="346.79" width="12.04" height="25.39" style="fill:#f5f5f5"></rect><path d="M176.38,382.14c0,.27-15.92.48-35.56.48s-35.56-.21-35.56-.48,15.92-.49,35.56-.49S176.38,381.87,176.38,382.14Z" style="fill:#ebebeb"></path><rect x="133.34" y="398.71" width="12.04" height="25.39" style="fill:#f5f5f5"></rect><path d="M176.38,434.06c0,.27-15.92.49-35.56.49s-35.56-.22-35.56-.49,15.92-.48,35.56-.48S176.38,433.8,176.38,434.06Z" style="fill:#ebebeb"></path><rect x="61.6" y="295.63" width="12.04" height="25.39" style="fill:#fff"></rect><path d="M104.64,331c0,.27-15.92.49-35.56.49s-35.56-.22-35.56-.49,15.92-.48,35.56-.48S104.64,330.71,104.64,331Z" style="fill:#e0e0e0"></path><rect x="61.6" y="346.8" width="12.04" height="25.39" style="fill:#fff"></rect><path d="M104.64,382.16c0,.26-15.92.48-35.56.48s-35.56-.22-35.56-.48,15.92-.49,35.56-.49S104.64,381.89,104.64,382.16Z" style="fill:#e0e0e0"></path><rect x="61.6" y="397.98" width="12.04" height="25.39" style="fill:#fff"></rect><path d="M104.64,433.33c0,.27-15.92.48-35.56.48s-35.56-.21-35.56-.48,15.92-.48,35.56-.48S104.64,433.06,104.64,433.33Z" style="fill:#e0e0e0"></path><rect x="634.72" y="224.45" width="85.17" height="222.92" style="fill:#ebebeb"></rect><rect x="677.3" y="224.45" width="42.58" height="222.92" style="fill:#e0e0e0"></rect><rect x="644.44" y="197.95" width="30.07" height="26.5" style="fill:#ebebeb"></rect><rect x="667.35" y="197.95" width="7.17" height="26.5" style="fill:#e0e0e0"></rect><rect x="627.62" y="222.9" width="94.76" height="1.55" style="fill:#e0e0e0"></rect><rect x="651.53" y="236.01" width="7.21" height="15.2" style="fill:#fff"></rect><path d="M677.3,257.17c0,.16-9.53.29-21.29.29s-21.29-.13-21.29-.29,9.53-.29,21.29-.29S677.3,257,677.3,257.17Z" style="fill:#e0e0e0"></path><rect x="694.49" y="236.01" width="7.21" height="15.2" style="fill:#f5f5f5"></rect><path d="M720.26,257.17c0,.16-9.54.29-21.29.29s-21.3-.13-21.3-.29,9.54-.29,21.3-.29S720.26,257,720.26,257.17Z" style="fill:#ebebeb"></path><rect x="694.49" y="266.19" width="7.21" height="15.2" style="fill:#f5f5f5"></rect><path d="M720.26,287.35c0,.16-9.54.29-21.29.29s-21.3-.13-21.3-.29,9.54-.29,21.3-.29S720.26,287.19,720.26,287.35Z" style="fill:#ebebeb"></path><rect x="694.49" y="297.28" width="7.21" height="15.2" style="fill:#f5f5f5"></rect><path d="M720.26,318.44c0,.16-9.54.29-21.29.29s-21.3-.13-21.3-.29,9.54-.29,21.3-.29S720.26,318.28,720.26,318.44Z" style="fill:#ebebeb"></path><rect x="694.49" y="328.37" width="7.21" height="15.2" style="fill:#f5f5f5"></rect><path d="M720.26,349.53c0,.17-9.54.3-21.29.3s-21.3-.13-21.3-.3,9.54-.29,21.3-.29S720.26,349.37,720.26,349.53Z" style="fill:#ebebeb"></path><rect x="694.49" y="358.57" width="7.21" height="15.2" style="fill:#f5f5f5"></rect><path d="M720.26,379.74c0,.16-9.54.29-21.29.29s-21.3-.13-21.3-.29,9.54-.29,21.3-.29S720.26,379.58,720.26,379.74Z" style="fill:#ebebeb"></path><rect x="694.49" y="388.89" width="7.21" height="15.2" style="fill:#f5f5f5"></rect><rect x="694.49" y="419.61" width="7.21" height="15.2" style="fill:#f5f5f5"></rect><path d="M720.26,410.06c0,.16-9.54.29-21.29.29s-21.3-.13-21.3-.29,9.54-.29,21.3-.29S720.26,409.9,720.26,410.06Z" style="fill:#ebebeb"></path><rect x="651.53" y="266.65" width="7.21" height="15.2" style="fill:#fff"></rect><path d="M677.3,287.81c0,.16-9.53.29-21.29.29s-21.29-.13-21.29-.29,9.53-.29,21.29-.29S677.3,287.65,677.3,287.81Z" style="fill:#e0e0e0"></path><rect x="651.53" y="297.29" width="7.21" height="15.2" style="fill:#fff"></rect><path d="M677.3,318.45c0,.17-9.53.3-21.29.3s-21.29-.13-21.29-.3,9.53-.29,21.29-.29S677.3,318.29,677.3,318.45Z" style="fill:#e0e0e0"></path><rect x="651.53" y="327.93" width="7.21" height="15.2" style="fill:#fff"></rect><path d="M677.3,349.1c0,.16-9.53.29-21.29.29s-21.29-.13-21.29-.29,9.53-.29,21.29-.29S677.3,348.94,677.3,349.1Z" style="fill:#e0e0e0"></path><rect x="651.53" y="358.57" width="7.21" height="15.2" style="fill:#fff"></rect><path d="M677.3,379.74c0,.16-9.53.29-21.29.29s-21.29-.13-21.29-.29,9.53-.29,21.29-.29S677.3,379.58,677.3,379.74Z" style="fill:#e0e0e0"></path><rect x="651.53" y="389.21" width="7.21" height="15.2" style="fill:#fff"></rect><path d="M677.3,410.38c0,.16-9.53.29-21.29.29s-21.29-.13-21.29-.29,9.53-.29,21.29-.29S677.3,410.22,677.3,410.38Z" style="fill:#e0e0e0"></path><rect x="651.53" y="419.85" width="7.21" height="15.2" style="fill:#fff"></rect><path d="M466.69,378.78H446.34a2.11,2.11,0,0,1-1.82-3.16L454.69,358l10.18-17.62a2.1,2.1,0,0,1,3.64,0L478.68,358l10.17,17.61a2.11,2.11,0,0,1-1.82,3.16Z" style="fill:#e0e0e0"></path><path d="M486.51,378H446.68a1.38,1.38,0,0,1-1.2-2.07l19.91-34.5a1.37,1.37,0,0,1,1.2-.7h0a1.35,1.35,0,0,1,1.2.7L487.71,376a1.36,1.36,0,0,1,0,1.38A1.38,1.38,0,0,1,486.51,378Zm-19.92-36.77a.87.87,0,0,0-.76.45l-19.92,34.5a.88.88,0,0,0,.77,1.32h39.83a.88.88,0,0,0,.77-1.32l-19.92-34.5a.88.88,0,0,0-.77-.45Z" style="fill:#fff"></path><path d="M464.39,371.11a2.22,2.22,0,0,1,2.31-2.23,2.2,2.2,0,0,1,2.29,2.2,2.3,2.3,0,0,1-4.6,0Zm.07-18.09,4.26,0-.63,13.46-2.85,0Z" style="fill:#fff"></path><path d="M407.44,215.7c.73-5.35-6.83-9.76-12.51-10.22-2.71-.22-5.53.19-8.1-.7-5.56-1.94-7.78-9.13-13.21-11.42-4.06-1.71-8.73-.18-12.67,1.8s-7.82,4.47-12.21,4.75c-3.83.24-8-1.17-11.32.69-2.5,1.4-3.8,4.27-6.1,6s-5.18,2-8,2.16-5.67.18-8.21,1.35-4.64,3.84-4.12,6.59Z" style="fill:#ebebeb"></path><path d="M645.91,72.44c.54-3.89-4.95-7.09-9.08-7.42-2-.16-4,.14-5.87-.51-4-1.41-5.66-6.63-9.6-8.29-2.94-1.24-6.33-.14-9.19,1.3s-5.68,3.25-8.87,3.45c-2.78.18-5.79-.85-8.22.51-1.81,1-2.76,3.09-4.42,4.32a10.55,10.55,0,0,1-5.79,1.57,16.16,16.16,0,0,0-6,1c-1.85.84-3.37,2.79-3,4.78Z" style="fill:#ebebeb"></path><path d="M307,69.53c.92-6.71-8.54-12.22-15.66-12.8-3.39-.27-6.91.25-10.13-.87-7-2.43-9.74-11.43-16.54-14.29-5.08-2.15-10.93-.24-15.85,2.24s-9.8,5.6-15.3,5.95c-4.78.31-10-1.47-14.17.87-3.12,1.74-4.75,5.34-7.63,7.46s-6.48,2.51-10,2.7-7.11.23-10.29,1.68-5.81,4.82-5.15,8.25Z" style="fill:#f5f5f5"></path></g><g id="freepik--traffic-light--inject-37"><rect x="64.75" y="142.41" width="237.21" height="3" style="fill:#455a64"></rect><path d="M58.12,117.63h0a6.63,6.63,0,0,0-6.64,6.63V457.79H64.75V124.26A6.63,6.63,0,0,0,58.12,117.63Z" style="fill:#263238"></path><path d="M64.88,279.65c-.12-2.51-2.64-62,31-97.29,15.69-16.48,36.76-24.83,62.62-24.83H303v4H158.45c-24.72,0-44.81,7.93-59.71,23.57-32.41,34-29.9,93.76-29.87,94.36Z" style="fill:#455a64"></path><rect x="205.45" y="123.54" width="31.04" height="79.05" rx="2.63" style="fill:#263238"></rect><circle cx="220.97" cy="140.18" r="8.65" transform="translate(33.61 322.87) rotate(-76.67)" style="fill:#7E57C2"></circle><circle cx="220.97" cy="163.57" r="8.65" transform="translate(-50.94 204.16) rotate(-45)" style="fill:#e0e0e0"></circle><circle cx="220.97" cy="186.96" r="8.65" transform="translate(-67.48 211.01) rotate(-45)" style="fill:#455a64"></circle><path d="M228.17,143.91a15.6,15.6,0,0,0,.45-2.68,8,8,0,0,0-7.91-8.46,18,18,0,0,0-2.7.26s.22-.15.68-.31a7.13,7.13,0,0,1,2-.32,8.06,8.06,0,0,1,8.28,8.86,7.13,7.13,0,0,1-.46,2C228.34,143.7,228.2,143.93,228.17,143.91Z" style="fill:#fff"></path><path d="M228.17,167a16.13,16.13,0,0,0,.45-2.69,8,8,0,0,0-7.91-8.46,18.18,18.18,0,0,0-2.7.26,2.12,2.12,0,0,1,.68-.31,7.15,7.15,0,0,1,2-.32,8,8,0,0,1,8.27,8.86,7.13,7.13,0,0,1-.46,2A1.78,1.78,0,0,1,228.17,167Z" style="fill:#fff"></path><path d="M228.2,190.6a15.6,15.6,0,0,0,.45-2.68,8,8,0,0,0-7.91-8.46,18.18,18.18,0,0,0-2.7.26s.22-.16.68-.31a7.22,7.22,0,0,1,2-.32,8,8,0,0,1,8.27,8.85,6.87,6.87,0,0,1-.46,2C228.38,190.39,228.23,190.62,228.2,190.6Z" style="fill:#fff"></path><path d="M233.94,197.45c-.14,0-.26-15.88-.26-35.46s.12-35.46.26-35.46.27,15.87.27,35.46S234.09,197.45,233.94,197.45Z" style="fill:#fff"></path><rect x="272.96" y="123.54" width="31.04" height="79.05" rx="2.63" style="fill:#263238"></rect><circle cx="288.48" cy="140.18" r="8.65" transform="translate(85.55 388.57) rotate(-76.67)" style="fill:#7E57C2"></circle><circle cx="288.48" cy="163.57" r="8.65" transform="translate(-31.17 251.9) rotate(-45)" style="fill:#e0e0e0"></circle><circle cx="288.48" cy="186.96" r="8.65" transform="translate(-47.7 258.75) rotate(-45)" style="fill:#455a64"></circle><path d="M295.68,143.91a15.6,15.6,0,0,0,.45-2.68,8,8,0,0,0-7.91-8.46,18.18,18.18,0,0,0-2.7.26s.22-.15.68-.31a7.15,7.15,0,0,1,2-.32,8,8,0,0,1,8.27,8.86,7.13,7.13,0,0,1-.46,2C295.86,143.7,295.71,143.93,295.68,143.91Z" style="fill:#fff"></path><path d="M295.69,167a18.47,18.47,0,0,0,.44-2.69,8,8,0,0,0-7.9-8.46,18.23,18.23,0,0,0-2.71.26,2.12,2.12,0,0,1,.68-.31,7.22,7.22,0,0,1,2-.32,8,8,0,0,1,8.27,8.86,6.79,6.79,0,0,1-.46,2A2.09,2.09,0,0,1,295.69,167Z" style="fill:#fff"></path><path d="M295.72,190.6a17.81,17.81,0,0,0,.44-2.68,8,8,0,0,0-7.9-8.46,18.23,18.23,0,0,0-2.71.26,1.8,1.8,0,0,1,.68-.31,7.22,7.22,0,0,1,2-.32,8,8,0,0,1,8.27,8.85,6.87,6.87,0,0,1-.46,2A1.81,1.81,0,0,1,295.72,190.6Z" style="fill:#fff"></path><path d="M301.46,197.45c-.15,0-.26-15.88-.26-35.46s.11-35.46.26-35.46.26,15.87.26,35.46S301.6,197.45,301.46,197.45Z" style="fill:#fff"></path></g><g id="freepik--Floor--inject-37"><path d="M389.2,107.3c.46-3.37-4.28-6.14-7.85-6.42-1.7-.14-3.47.12-5.08-.44-3.49-1.22-4.88-5.73-8.29-7.17-2.55-1.07-5.48-.11-8,1.13s-4.91,2.81-7.67,3c-2.4.16-5-.73-7.1.44-1.57.87-2.39,2.67-3.83,3.74a9.08,9.08,0,0,1-5,1.35,14.23,14.23,0,0,0-5.16.85c-1.59.73-2.91,2.41-2.58,4.13Z" style="fill:#fafafa"></path><path d="M708,137.56c.46-3.36-4.29-6.13-7.85-6.41-1.71-.14-3.47.12-5.08-.44-3.5-1.22-4.89-5.73-8.3-7.17-2.54-1.07-5.48-.11-7.95,1.13s-4.9,2.8-7.66,3c-2.4.15-5-.74-7.11.44-1.56.87-2.38,2.67-3.82,3.74a9.09,9.09,0,0,1-5,1.35,14.14,14.14,0,0,0-5.15.85c-1.59.72-2.91,2.41-2.58,4.13Z" style="fill:#fafafa"></path><path d="M714.39,470.43c0,.14-153.43.26-342.65.26s-342.68-.12-342.68-.26,153.39-.26,342.68-.26S714.39,470.28,714.39,470.43Z" style="fill:#263238"></path><path d="M18.88,470.43l.81,0,2.39,0,9.19-.05,33.9-.08,112.58-.08-.26.26V457.79l.26.26L65.16,458l-33.89-.08-9.19-.05-2.39,0-.81,0s.27,0,.81,0l2.39,0,9.19-.05,33.89-.08,112.59-.08H178v13.16h-.26l-112.58-.08-33.9-.08-9.19,0-2.39,0Z" style="fill:#263238"></path><path d="M164.1,470.43a76.94,76.94,0,0,1,0-12.64,76.94,76.94,0,0,1,0,12.64Z" style="fill:#263238"></path><path d="M91.21,470.43a76.94,76.94,0,0,1,0-12.64,76.94,76.94,0,0,1,0,12.64Z" style="fill:#263238"></path><path d="M729.12,470.43l-.83,0-2.46,0-9.45,0-34.86.08-115.74.08h-.26V457.53h.26l115.75.08,34.85.08,9.45.05,2.46,0,.83,0-.83,0-2.46,0-9.45.05-34.85.08-115.75.08.26-.26v12.64l-.26-.26,115.74.08,34.86.08,9.45.05,2.46,0Z" style="fill:#263238"></path><path d="M646.13,470.43a76.94,76.94,0,0,1,0-12.64,76.94,76.94,0,0,1,0,12.64Z" style="fill:#263238"></path><path d="M719,470.43a76.94,76.94,0,0,1,0-12.64,76.94,76.94,0,0,1,0,12.64Z" style="fill:#263238"></path><path d="M571.81,456.15c0,.14-87.48.26-195.38.26s-195.4-.12-195.4-.26,87.47-.26,195.4-.26S571.81,456,571.81,456.15Z" style="fill:#fff"></path></g><g id="freepik--Plants--inject-37"><path d="M578.18,417.46a7.55,7.55,0,0,1,3.91,4.43,13.24,13.24,0,0,1,.52,6c-.44,3.89-2.65,7.83-5,10.94-3.28-2.86-4-7.86-4.26-10.41-.35-4,1.46-11.56,4.86-11" style="fill:#7E57C2"></path><path d="M581.39,445.25a6.43,6.43,0,0,1,2.08-6.12,8.58,8.58,0,0,1,6.3-2,3.6,3.6,0,0,1,2.77,1.25,2.73,2.73,0,0,1,0,2.79,5.57,5.57,0,0,1-2.06,2c-2.84,1.78-5.92,3-9.13,2" style="fill:#7E57C2"></path><path d="M577.18,457.19a5.06,5.06,0,0,1,.12-.8c.1-.56.24-1.29.4-2.16a22.41,22.41,0,0,1,2.23-6.91,13.89,13.89,0,0,1,5-5.27,10.36,10.36,0,0,1,2-.89c.24-.08.45-.11.58-.15a.54.54,0,0,1,.21,0,15.56,15.56,0,0,0-2.71,1.25,14.21,14.21,0,0,0-4.81,5.23,24.17,24.17,0,0,0-2.29,6.81c-.2.91-.36,1.64-.48,2.15A4.07,4.07,0,0,1,577.18,457.19Z" style="fill:#263238"></path><path d="M577.31,423.31a2,2,0,0,1,0,.35l.06,1c0,.87.09,2.13.14,3.69.1,3.12.18,7.44.16,12.2s-.13,9.08-.26,12.2c-.07,1.56-.13,2.82-.18,3.69,0,.41,0,.74-.07,1a2,2,0,0,1,0,.35,1.35,1.35,0,0,1,0-.35c0-.26,0-.59,0-1,0-.9.05-2.16.09-3.69.07-3.12.16-7.43.18-12.19s0-9.07-.08-12.19c0-1.53,0-2.79-.05-3.7,0-.41,0-.74,0-1A1.35,1.35,0,0,1,577.31,423.31Z" style="fill:#263238"></path><path d="M575.71,447.62a15,15,0,0,0-8.22-11c-1.09-.52-2.53-.87-3.43,0s-.7,2.28-.25,3.42a12.85,12.85,0,0,0,11.83,8" style="fill:#7E57C2"></path><path d="M568,440.29a3.56,3.56,0,0,1,.7.3,5.64,5.64,0,0,1,.78.42,9.44,9.44,0,0,1,1,.63,14.21,14.21,0,0,1,1.14.86c.41.32.8.7,1.22,1.1a16.68,16.68,0,0,1,2.31,3,16.37,16.37,0,0,1,1.53,3.45,13.72,13.72,0,0,1,.39,1.6,11.63,11.63,0,0,1,.19,1.42c.06.44,0,.84.06,1.18a7.79,7.79,0,0,1,0,.89,4.78,4.78,0,0,1-.08.76c-.07,0,0-1.09-.15-2.81a11.16,11.16,0,0,0-.23-1.39,13.42,13.42,0,0,0-.4-1.57,16.65,16.65,0,0,0-1.52-3.38,17,17,0,0,0-2.26-2.94,14.9,14.9,0,0,0-1.18-1.11,12.88,12.88,0,0,0-1.11-.88C569,440.79,568,440.34,568,440.29Z" style="fill:#263238"></path><path d="M98.8,381.28q5.37,38.31,10.76,76.61l2.8.09C110.57,432,108.67,405.42,98.8,381.28Z" style="fill:#455a64"></path><path d="M128.68,377.69c-7.52,8.24-10.54,19.56-12.44,30.54-2.7,15.58-2.95,34-2.14,49.75l3.93.09A216,216,0,0,1,128.68,377.69Z" style="fill:#455a64"></path><path d="M100.77,426.61c-.86-3.8-1.85-7.66-4-10.89-2.93-4.37-7.7-7.13-12.5-9.28s-9.84-3.87-14.18-6.85c4.84,7.93,15.82,10,21.41,17.46,2.78,3.69,3.94,8.32,5,12.81,2.37,9.79,3.84,18.27,6.21,28.06h3.18A247.38,247.38,0,0,0,100.77,426.61Z" style="fill:#455a64"></path><path d="M120.89,458s2.7-30.42,4.7-36,20.88-21,20.7-20.3-14.17,17.62-16.16,21.07S124.68,458,124.68,458Z" style="fill:#455a64"></path></g><g id="freepik--road-sign-3--inject-37"><rect x="668.53" y="344.98" width="4.85" height="90.33" style="fill:#e0e0e0"></rect><path d="M673.38,435.32s0-.17,0-.48,0-.79,0-1.38c0-1.22,0-3,0-5.24,0-4.57,0-11.14-.07-19.28,0-16.28-.07-38.83-.11-64l.26.26h-4.85c.51-.52.14-.13.26-.23v7.86q0,3.92,0,7.72c0,5.08,0,10,0,14.8,0,9.54,0,18.4,0,26.3-.06,15.75-.11,27.67-.13,33.62l-.08-.07,3.64,0,.9,0,.31,0h-.28l-.89,0-3.68,0h-.08v-.08c0-5.95-.07-17.87-.13-33.62,0-7.9,0-16.76,0-26.3,0-4.77,0-9.72,0-14.8V345c.12-.13-.27.23.26-.29h5.11V345c0,25.21-.08,47.82-.11,64.15,0,8.11-.06,14.67-.08,19.22,0,2.23,0,4,0,5.18,0,.58,0,1,0,1.34S673.38,435.32,673.38,435.32Z" style="fill:#263238"></path><path d="M674.65,457.79h-7.4V435.24a1.81,1.81,0,0,1,1.81-1.81h3.78a1.81,1.81,0,0,1,1.81,1.81Z" style="fill:#e0e0e0"></path><path d="M674.65,457.79s0-.24,0-.67,0-1.08,0-1.83c0-1.64-.05-3.9-.08-6.66s0-6.12-.08-9.79c0-.92,0-1.86,0-2.82v-.72a1.64,1.64,0,0,0-.11-.63,1.56,1.56,0,0,0-.9-.88,4.53,4.53,0,0,0-1.42-.1h-1.55c-.5,0-1.07,0-1.54,0a1.55,1.55,0,0,0-1.12.7,1.62,1.62,0,0,0-.24.71c0,.25,0,.58,0,.86v5.14c0,2.22,0,4.34,0,6.35,0,4,0,7.5-.07,10.32l-.17-.17,5.4.09,1.47.05.53,0a3,3,0,0,1-.47,0l-1.43,0-5.5.09h-.16v-.17c0-2.82,0-6.33-.07-10.32,0-2,0-4.13,0-6.35v-3.4c0-.57,0-1.15,0-1.74,0-.3,0-.57,0-.9a2.07,2.07,0,0,1,.32-1,2.11,2.11,0,0,1,1.5-.93c.59,0,1.07,0,1.6,0h2.32a2,2,0,0,1,.83.14,2.06,2.06,0,0,1,1.19,1.16,2.32,2.32,0,0,1,.14.82V436c0,1,0,1.94,0,2.87,0,3.71,0,7.06-.08,9.9s-.06,5-.08,6.62c0,.73,0,1.32,0,1.78A3.08,3.08,0,0,1,674.65,457.79Z" style="fill:#263238"></path><rect x="637.69" y="278.89" width="61.68" height="61.68" rx="3.3" transform="translate(395.5 -374.61) rotate(43.39)" style="fill:#7E57C2"></rect><path d="M669.45,347.11a4.6,4.6,0,0,1-3.19-1.27L631.47,313a3.09,3.09,0,0,1-.12-4.37l32.89-34.79a4.64,4.64,0,0,1,6.56-.18l33.66,31.82a4.64,4.64,0,0,1,.18,6.56l-31.82,33.66A4.64,4.64,0,0,1,669.45,347.11Zm-2.85-1.63a4.18,4.18,0,0,0,3,1.13,4.13,4.13,0,0,0,2.9-1.29l31.82-33.66a4.15,4.15,0,0,0-.17-5.86L670.45,274a4.14,4.14,0,0,0-5.85.16l-32.89,34.79a2.6,2.6,0,0,0,.1,3.66Z" style="fill:#fff"></path><path d="M676.55,329.31h-3.91V311.22a7.48,7.48,0,0,0-7.47-7.46H654.91v-3.91h10.26a11.38,11.38,0,0,1,11.38,11.37Z" style="fill:#fff"></path><polygon points="663.97 294.61 663.97 308.21 650.53 301.8 663.97 294.61" style="fill:#fff"></polygon><g style="opacity:0.30000000000000004"><path d="M664.51,269.09,627.73,308a4.08,4.08,0,0,0,.16,5.76l38.9,36.78a3.65,3.65,0,0,0,2.66,1.11c1.41-.2-1.82-83.82-1.82-83.82A3.69,3.69,0,0,0,664.51,269.09Z"></path></g></g><g id="freepik--road-sign-1--inject-37"><rect x="135.52" y="344.98" width="4.85" height="90.33" style="fill:#e0e0e0"></rect><path d="M140.37,435.32s0-.17,0-.48,0-.79,0-1.38c0-1.22,0-3,0-5.24,0-4.57-.05-11.14-.08-19.28,0-16.28-.07-38.83-.11-64l.26.26h-4.84c.51-.52.14-.13.25-.23v15.58c0,5.08,0,10,0,14.8,0,9.54,0,18.4,0,26.3-.06,15.75-.11,27.67-.13,33.62l-.08-.07,3.64,0,.9,0,.31,0h-.28l-.88,0-3.69,0h-.08v-.08c0-5.95-.07-17.87-.13-33.62,0-7.9,0-16.76,0-26.3,0-4.77,0-9.72,0-14.8V345c.12-.13-.26.23.27-.29h5.1V345c0,25.21-.08,47.82-.11,64.15,0,8.11-.06,14.67-.08,19.22,0,2.23,0,4,0,5.18,0,.58,0,1,0,1.34S140.37,435.32,140.37,435.32Z" style="fill:#263238"></path><path d="M141.64,457.79h-7.39V435.24a1.81,1.81,0,0,1,1.81-1.81h3.77a1.81,1.81,0,0,1,1.81,1.81Z" style="fill:#e0e0e0"></path><path d="M141.64,457.79a6.23,6.23,0,0,1,0-.67c0-.47,0-1.08,0-1.83,0-1.64,0-3.9-.09-6.66s0-6.12-.08-9.79c0-.92,0-1.86,0-2.82v-.72a1.64,1.64,0,0,0-.11-.63,1.57,1.57,0,0,0-.89-.88,4.57,4.57,0,0,0-1.42-.1h-1.55c-.51,0-1.08,0-1.55,0a1.57,1.57,0,0,0-1.12.7,1.62,1.62,0,0,0-.24.71c0,.25,0,.58,0,.86v1.74c0,1.16,0,2.29,0,3.4,0,2.22,0,4.34,0,6.35,0,4,0,7.5-.06,10.32l-.17-.17,5.39.09,1.47.05.53,0a3,3,0,0,1-.47,0l-1.43,0-5.49.09h-.17v-.17c0-2.82,0-6.33-.07-10.32q0-3,0-6.35V436c0-.3,0-.57,0-.9a2.05,2.05,0,0,1,1.81-1.89c.59,0,1.07,0,1.61,0h2.31a2.09,2.09,0,0,1,.84.14,2,2,0,0,1,1.18,1.16,2.12,2.12,0,0,1,.14.82V436c0,1,0,1.94,0,2.87,0,3.71,0,7.06-.07,9.9s-.07,5-.09,6.62c0,.73,0,1.32,0,1.78A2.27,2.27,0,0,1,141.64,457.79Z" style="fill:#263238"></path><path d="M118.35,282.15,101,310.88a4.79,4.79,0,0,0,0,5l17.34,28.74a4.83,4.83,0,0,0,4.13,2.33h32a4.82,4.82,0,0,0,4.12-2.33L176,315.79a4.8,4.8,0,0,0,.07-4.86l-16.17-28.66a4.8,4.8,0,0,0-4.19-2.45H122.48A4.81,4.81,0,0,0,118.35,282.15Z" style="fill:#7E57C2"></path><path d="M152.87,344.71H123.22a4.75,4.75,0,0,1-4-2.27l-16.07-26.63a4.7,4.7,0,0,1,0-4.88l16.07-26.62a4.74,4.74,0,0,1,4-2.28H154a4.73,4.73,0,0,1,4.11,2.4l15,26.55a4.71,4.71,0,0,1-.07,4.76l-16.12,26.7A4.74,4.74,0,0,1,152.87,344.71Zm-29.65-62.18a4.25,4.25,0,0,0-3.61,2l-16.07,26.63a4.22,4.22,0,0,0,0,4.36l16.07,26.63a4.25,4.25,0,0,0,3.61,2h29.65a4.23,4.23,0,0,0,3.6-2l16.13-26.7a4.25,4.25,0,0,0,.06-4.25l-15-26.56a4.21,4.21,0,0,0-3.67-2.14Z" style="fill:#fff"></path><circle cx="137.95" cy="340.06" r="1.48" style="fill:#e0e0e0"></circle><path d="M139.42,340.06c-.09,0-.07-.58-.69-1a1.33,1.33,0,0,0-1.21-.14,1.25,1.25,0,0,0,0,2.32,1.3,1.3,0,0,0,1.21-.13c.62-.44.6-1,.69-1s.08.14.05.39a1.46,1.46,0,0,1-.52.93,1.65,1.65,0,0,1-1.59.3,1.73,1.73,0,0,1-1.15-1.62,1.71,1.71,0,0,1,1.15-1.61,1.65,1.65,0,0,1,1.59.29,1.45,1.45,0,0,1,.52.94C139.5,339.93,139.45,340.06,139.42,340.06Z" style="fill:#263238"></path><path d="M127.76,308.17l-1.35,2.45a.57.57,0,0,1-.26.25l-3.59,1.56a.92.92,0,0,0-.49,1.16h0a.89.89,0,0,0,1.17.53l3.78-1.51a.6.6,0,0,0,.22-.16l1.36-1.59v4.33a.64.64,0,0,1,0,.23l-2.18,5.23a.58.58,0,0,0,.52.8h.67l-1.08,5.7a1,1,0,0,0,1,1.21h0a1,1,0,0,0,.94-.71l1.74-5.57a.56.56,0,0,1,.47-.39l.88-.1,1.79,5.86a1.11,1.11,0,0,0,1.21.79h0a1.14,1.14,0,0,0,.95-1.43l-1.33-5.08,1.27-.09a.57.57,0,0,0,.49-.76l-.52-1.48,3.24-.72a.58.58,0,0,0,.42-.7l-.71-2.9a.56.56,0,0,0-.6-.42l-1.45.15.05-1.67a.56.56,0,0,1,.44-.53c.88-.21,2.91-.72,3.44-1.32a17.79,17.79,0,0,0,1.52-2.19V316a.53.53,0,0,1-.06.24,44.72,44.72,0,0,0-2,4.89c0,.5,0,3.62.09,5.42a1.32,1.32,0,0,0,1.3,1.29h0a1.32,1.32,0,0,0,1.3-1.33v-5.29a.59.59,0,0,1,.07-.29l1.37-2.41a.56.56,0,0,1,1,.28v3.14a.57.57,0,0,0,0,.22l1.9,4.73a1.24,1.24,0,0,0,1.9.54h0a1.31,1.31,0,0,0,.43-1.5l-1.64-4.25a.53.53,0,0,1,0-.39l.21-.65,5.81-1.36a.57.57,0,0,0,.43-.66l-.78-4a.55.55,0,0,0-.54-.46H150l.2-2.95a3.38,3.38,0,0,0-.65-2.22L148,307a2.7,2.7,0,0,0-2.16-1.1h-3.24a2.41,2.41,0,0,0-2,1.17L139,309.57a.54.54,0,0,1-.27.23l-2.26.9a.54.54,0,0,1-.65-.19L134.08,308a1.74,1.74,0,0,0-1.4-.72h-3.42A1.7,1.7,0,0,0,127.76,308.17Z" style="fill:#e0e0e0"></path><path d="M133.73,303.46a2.77,2.77,0,1,1-2.77-2.84A2.8,2.8,0,0,1,133.73,303.46Z" style="fill:#e0e0e0"></path><path d="M147.6,301.38a2.93,2.93,0,1,1-2.92-3A3,3,0,0,1,147.6,301.38Z" style="fill:#e0e0e0"></path><g style="opacity:0.30000000000000004"><path d="M122.48,279.82a4.81,4.81,0,0,0-4.13,2.33L101,310.88a4.79,4.79,0,0,0,0,5l17.34,28.74,37.35-64.78Z"></path></g><circle cx="138.07" cy="286.21" r="1.48" style="fill:#e0e0e0"></circle><path d="M139.54,286.21c-.08,0-.06-.59-.69-1a1.3,1.3,0,0,0-1.21-.13,1.25,1.25,0,0,0,0,2.32,1.33,1.33,0,0,0,1.21-.14c.63-.44.61-1.05.69-1s.08.13.05.38a1.45,1.45,0,0,1-.52.94,1.65,1.65,0,0,1-1.59.29,1.71,1.71,0,0,1-1.15-1.61,1.73,1.73,0,0,1,1.15-1.62,1.65,1.65,0,0,1,1.59.3,1.46,1.46,0,0,1,.52.93C139.62,286.07,139.57,286.21,139.54,286.21Z" style="fill:#263238"></path></g></svg>