<svg width="19px"  height="19px" x="0px" y="0px" viewBox = "0 0 19 19" enableBackground= "new 0 0 19 19" fill="#9E9E9E" xmlns="http://www.w3.org/2000/svg">
        <g>
            <path fill="none" d="M4.2,5.6H2.7C2.3,5.6,2,5.9,2,6.3S2.3,7,2.7,7h2.9L5.5,6.9L4.2,5.6z" />
            <path d="M17,3.5H7.5l2.1,2.1h6.7c0.4,0,0.7,0.3,0.7,0.7S16.7,7,16.3,7H11l4.2,4.2h1.1c0.4,0,0.7,0.3,0.7,0.7v1.1l1.2,1.3 c0.5-0.4,0.8-1,0.8-1.7v-7C19,4.5,18.1,3.5,17,3.5z" />
            <path d="M5.4,15.5c-0.4,0-0.7,0.3-0.7,0.7v2.1c0,0.4,0.3,0.7,0.7,0.7s0.7-0.3,0.7-0.7v-2.1C6.1,15.8,5.8,15.5,5.4,15.5z" />
            <path d="M9.5,15.5c-0.4,0-0.7,0.3-0.7,0.7v2.1c0,0.4,0.3,0.7,0.7,0.7s0.7-0.3,0.7-0.7v-2.1C10.2,15.8,9.9,15.5,9.5,15.5z" />
            <path d="M13.6,15.5c-0.4,0-0.7,0.3-0.7,0.7v2.1c0,0.4,0.3,0.7,0.7,0.7c0.4,0,0.7-0.3,0.7-0.7v-2.1C14.3,15.8,13.9,15.5,13.6,15.5z" />
            <path d="M0.1,1.4l2.1,2.1H2c-1.1,0-2,0.9-2,2.1v7c0,1.2,0.9,2.1,2,2.1V12c0-0.4,0.3-0.7,0.7-0.7h7.1l1.2,1.2l0.2,0.2H3.4v2.1h9.9 l4,4l1.4-1.4L1.4,0L0.1,1.4z M2.7,7C2.3,7,2,6.7,2,6.3s0.3-0.7,0.7-0.7h1.5l1.3,1.3L5.6,7H2.7z" />
        </g>
    </svg>