<svg width="46" height="45" viewBox="0 0 46 45" fill="none" xmlns="http://www.w3.org/2000/svg">
<g id="tabler:steering-wheel">
<g id="Group">
<path id="Vector" d="M23 39.375C25.2161 39.375 27.4104 38.9385 29.4578 38.0905C31.5052 37.2424 33.3654 35.9994 34.9324 34.4324C36.4994 32.8654 37.7424 31.0052 38.5905 28.9578C39.4385 26.9104 39.875 24.7161 39.875 22.5C39.875 20.2839 39.4385 18.0896 38.5905 16.0422C37.7424 13.9948 36.4994 12.1346 34.9324 10.5676C33.3654 9.00059 31.5052 7.75758 29.4578 6.90953C27.4104 6.06148 25.2161 5.625 23 5.625C20.7839 5.625 18.5896 6.06148 16.5422 6.90953C14.4948 7.75758 12.6346 9.00059 11.0676 10.5676C9.50058 12.1346 8.25758 13.9948 7.40953 16.0422C6.56148 18.0896 6.125 20.2839 6.125 22.5C6.125 24.7161 6.56148 26.9104 7.40953 28.9578C8.25758 31.0052 9.50058 32.8654 11.0676 34.4324C12.6346 35.9994 14.4948 37.2424 16.5422 38.0905C18.5896 38.9385 20.7839 39.375 23 39.375Z" stroke="#BDBDBD" stroke-width="2" stroke-linecap="round" stroke-linejoin="round"/>
<path id="Vector_2" d="M23 26.25C23.9946 26.25 24.9484 25.8549 25.6516 25.1516C26.3549 24.4484 26.75 23.4946 26.75 22.5M23 26.25C22.0054 26.25 21.0516 25.8549 20.3484 25.1516C19.6451 24.4484 19.25 23.4946 19.25 22.5C19.25 21.5054 19.6451 20.5516 20.3484 19.8484C21.0516 19.1451 22.0054 18.75 23 18.75M23 26.25L19.25 38.9062M26.75 22.5C26.75 21.5054 26.3549 20.5516 25.6516 19.8484C24.9484 19.1451 23.9946 18.75 23 18.75M26.75 22.5H39.875M23 18.75L19.25 6.09375" stroke="#BDBDBD" stroke-width="2" stroke-linecap="round" stroke-linejoin="round"/>
</g>
</g>
</svg>
